<svg xmlns="http://www.w3.org/2000/svg" width="431" height="431" viewBox="0 0 431 431" fill="none"><g filter="url(#prefix__A)"><g filter="url(#prefix__B)"><path fill-rule="evenodd" d="M192.692 53.758c-76.608 0-138.712 62.103-138.712 138.712v46.237c0 76.608 62.104 138.711 138.712 138.711h46.237c76.608 0 138.711-62.103 138.711-138.711V192.47c0-76.609-62.103-138.712-138.711-138.712h-46.237zm63.324 103.913H204.98a21.54 21.54 0 00-21.541 21.541v73.284a9.378 9.378 0 002.744 6.646 9.38 9.38 0 006.642 2.755h70.899a21.54 21.54 0 110 43.081h-81.546a41.868 41.868 0 01-41.866-41.866v-71.237c0-9.909 8.062-19.433 17.987-20.679 20.186-2.555 33.218-16.325 35.388-35.635a23.833 23.833 0 0123.079-20.971h39.25a21.537 21.537 0 0121.54 21.541 21.54 21.54 0 01-21.54 21.54z" fill="#fff"/></g></g><defs><filter id="prefix__A" x=".753" y=".531" width="430.115" height="430.115" filterUnits="userSpaceOnUse" color-interpolation-filters="sRGB"><feFlood flood-opacity="0" result="A"/><feColorMatrix in="SourceAlpha" values="0 0 0 0 0 0 0 0 0 0 0 0 0 0 0 0 0 0 127 0" result="B"/><feOffset/><feGaussianBlur stdDeviation="26.614"/><feComposite in2="B" operator="out"/><feColorMatrix values="0 0 0 0 0 0 0 0 0 0.177667 0 0 0 0 0.341667 0 0 0 0.44 0"/><feBlend in2="A"/><feBlend in="SourceGraphic"/></filter><filter id="prefix__B" x="-592.356" y="-592.578" width="1616.33" height="1616.33" filterUnits="userSpaceOnUse" color-interpolation-filters="sRGB"><feFlood flood-opacity="0"/><feGaussianBlur stdDeviation="323.168"/><feComposite in2="SourceAlpha" operator="in"/><feBlend in="SourceGraphic"/></filter></defs></svg>